<mxfile host="Electron" modified="2024-02-29T04:20:00.530Z" agent="Mozilla/5.0 (Windows NT 10.0; Win64; x64) AppleWebKit/537.36 (KHTML, like Gecko) draw.io/22.1.16 Chrome/120.0.6099.109 Electron/28.1.0 Safari/537.36" etag="pvzHH69D6RjbzJunrrm4" version="22.1.16" type="device">
  <diagram name="Page-1" id="pvK8SHJI1jPRq-kIuwKU">
    <mxGraphModel dx="1851" dy="2124" grid="1" gridSize="10" guides="1" tooltips="1" connect="1" arrows="1" fold="1" page="1" pageScale="1" pageWidth="850" pageHeight="1100" math="0" shadow="0">
      <root>
        <mxCell id="0" />
        <mxCell id="1" parent="0" />
        <mxCell id="uIX2_BY9ZcgLZc45bn8o-1" value="AWS Cloud" style="points=[[0,0],[0.25,0],[0.5,0],[0.75,0],[1,0],[1,0.25],[1,0.5],[1,0.75],[1,1],[0.75,1],[0.5,1],[0.25,1],[0,1],[0,0.75],[0,0.5],[0,0.25]];outlineConnect=0;gradientColor=none;html=1;whiteSpace=wrap;fontSize=12;fontStyle=0;container=1;pointerEvents=0;collapsible=0;recursiveResize=0;shape=mxgraph.aws4.group;grIcon=mxgraph.aws4.group_aws_cloud_alt;strokeColor=#232F3E;fillColor=none;verticalAlign=top;align=left;spacingLeft=30;fontColor=#232F3E;dashed=0;" vertex="1" parent="1">
          <mxGeometry x="150" y="140" width="1100" height="710" as="geometry" />
        </mxCell>
        <mxCell id="uIX2_BY9ZcgLZc45bn8o-2" value="Amazon S3" style="sketch=0;outlineConnect=0;fontColor=#232F3E;gradientColor=none;strokeColor=#ffffff;fillColor=#232F3E;dashed=0;verticalLabelPosition=middle;verticalAlign=bottom;align=center;html=1;whiteSpace=wrap;fontSize=10;fontStyle=1;spacing=3;shape=mxgraph.aws4.productIcon;prIcon=mxgraph.aws4.s3;" vertex="1" parent="uIX2_BY9ZcgLZc45bn8o-1">
          <mxGeometry x="380" y="410" width="80" height="100" as="geometry" />
        </mxCell>
        <mxCell id="uIX2_BY9ZcgLZc45bn8o-4" value="AWS Lambda" style="sketch=0;outlineConnect=0;fontColor=#232F3E;gradientColor=none;strokeColor=#ffffff;fillColor=#232F3E;dashed=0;verticalLabelPosition=middle;verticalAlign=bottom;align=center;html=1;whiteSpace=wrap;fontSize=10;fontStyle=1;spacing=3;shape=mxgraph.aws4.productIcon;prIcon=mxgraph.aws4.lambda;" vertex="1" parent="uIX2_BY9ZcgLZc45bn8o-1">
          <mxGeometry x="370" y="248" width="80" height="100" as="geometry" />
        </mxCell>
        <mxCell id="uIX2_BY9ZcgLZc45bn8o-11" value="Amazon CloudWatch" style="sketch=0;outlineConnect=0;fontColor=#232F3E;gradientColor=none;strokeColor=#ffffff;fillColor=#232F3E;dashed=0;verticalLabelPosition=middle;verticalAlign=bottom;align=center;html=1;whiteSpace=wrap;fontSize=10;fontStyle=1;spacing=3;shape=mxgraph.aws4.productIcon;prIcon=mxgraph.aws4.cloudwatch;" vertex="1" parent="uIX2_BY9ZcgLZc45bn8o-1">
          <mxGeometry x="360" y="80" width="80" height="110" as="geometry" />
        </mxCell>
        <mxCell id="uIX2_BY9ZcgLZc45bn8o-8" value="" style="sketch=0;outlineConnect=0;fontColor=#232F3E;gradientColor=none;fillColor=#8C4FFF;strokeColor=none;dashed=0;verticalLabelPosition=bottom;verticalAlign=top;align=center;html=1;fontSize=12;fontStyle=0;aspect=fixed;pointerEvents=1;shape=mxgraph.aws4.glue_data_catalog;" vertex="1" parent="uIX2_BY9ZcgLZc45bn8o-1">
          <mxGeometry x="790" y="240" width="72" height="78" as="geometry" />
        </mxCell>
        <mxCell id="uIX2_BY9ZcgLZc45bn8o-9" value="" style="sketch=0;points=[[0,0,0],[0.25,0,0],[0.5,0,0],[0.75,0,0],[1,0,0],[0,1,0],[0.25,1,0],[0.5,1,0],[0.75,1,0],[1,1,0],[0,0.25,0],[0,0.5,0],[0,0.75,0],[1,0.25,0],[1,0.5,0],[1,0.75,0]];outlineConnect=0;fontColor=#232F3E;fillColor=#8C4FFF;strokeColor=#ffffff;dashed=0;verticalLabelPosition=bottom;verticalAlign=top;align=center;html=1;fontSize=12;fontStyle=0;aspect=fixed;shape=mxgraph.aws4.resourceIcon;resIcon=mxgraph.aws4.athena;" vertex="1" parent="uIX2_BY9ZcgLZc45bn8o-1">
          <mxGeometry x="790" y="390" width="78" height="78" as="geometry" />
        </mxCell>
        <mxCell id="uIX2_BY9ZcgLZc45bn8o-6" value="" style="sketch=0;outlineConnect=0;fontColor=#232F3E;gradientColor=none;fillColor=#8C4FFF;strokeColor=none;dashed=0;verticalLabelPosition=bottom;verticalAlign=top;align=center;html=1;fontSize=12;fontStyle=0;aspect=fixed;pointerEvents=1;shape=mxgraph.aws4.glue_crawlers;" vertex="1" parent="uIX2_BY9ZcgLZc45bn8o-1">
          <mxGeometry x="790" y="91" width="78" height="78" as="geometry" />
        </mxCell>
        <mxCell id="uIX2_BY9ZcgLZc45bn8o-14" value="AWS Lambda" style="sketch=0;outlineConnect=0;fontColor=#232F3E;gradientColor=none;strokeColor=#ffffff;fillColor=#232F3E;dashed=0;verticalLabelPosition=middle;verticalAlign=bottom;align=center;html=1;whiteSpace=wrap;fontSize=10;fontStyle=1;spacing=3;shape=mxgraph.aws4.productIcon;prIcon=mxgraph.aws4.lambda;" vertex="1" parent="uIX2_BY9ZcgLZc45bn8o-1">
          <mxGeometry x="580" y="240" width="80" height="100" as="geometry" />
        </mxCell>
        <mxCell id="uIX2_BY9ZcgLZc45bn8o-16" value="Amazon S3" style="sketch=0;outlineConnect=0;fontColor=#232F3E;gradientColor=none;strokeColor=#ffffff;fillColor=#232F3E;dashed=0;verticalLabelPosition=middle;verticalAlign=bottom;align=center;html=1;whiteSpace=wrap;fontSize=10;fontStyle=1;spacing=3;shape=mxgraph.aws4.productIcon;prIcon=mxgraph.aws4.s3;" vertex="1" parent="uIX2_BY9ZcgLZc45bn8o-1">
          <mxGeometry x="590" y="80" width="80" height="100" as="geometry" />
        </mxCell>
        <mxCell id="uIX2_BY9ZcgLZc45bn8o-17" value="" style="sketch=0;aspect=fixed;pointerEvents=1;shadow=0;dashed=0;html=1;strokeColor=none;labelPosition=center;verticalLabelPosition=bottom;verticalAlign=top;align=center;shape=mxgraph.mscae.enterprise.triggers;fillColor=#0078D7;" vertex="1" parent="uIX2_BY9ZcgLZc45bn8o-1">
          <mxGeometry x="593" y="435" width="47" height="50" as="geometry" />
        </mxCell>
      </root>
    </mxGraphModel>
  </diagram>
</mxfile>
